<?xml version="1.0" encoding="utf-8"?>
<!-- Generator: Adobe Illustrator 28.0.0, SVG Export Plug-In . SVG Version: 6.00 Build 0)  -->
<svg version="1.2" baseProfile="tiny" xmlns="http://www.w3.org/2000/svg" xmlns:xlink="http://www.w3.org/1999/xlink" x="0px"
	 y="0px" viewBox="0 0 600 600" overflow="visible" xml:space="preserve">
<g id="Layer_1">
</g>
<g id="Layer_3">
	<path fill="#FFFFFF" stroke="#000000" stroke-miterlimit="10" d="M421.15,294.8c0-29.15-13.55-76.94-47.72-80.92
		c0-0.09,0-0.17,0-0.26c-48.59-1.69-97.13-1.7-145.73-0.04c0,54.15,0,108.29,0,162.44c48.59,1.66,97.13,1.64,145.73-0.04
		c0-0.09,0-0.17,0-0.26C407.6,371.74,421.15,323.96,421.15,294.8z"/>
	<path fill="#FFFFFF" stroke="#000000" stroke-miterlimit="10" d="M279.44,294.8c0,29.21-13.06,82.11-50.31,81.14
		c-35.73-0.93-50.27-52.39-50.27-81.14c0-28.75,14.55-80.21,50.27-81.14C266.37,212.7,279.44,265.59,279.44,294.8z"/>
	<path fill="#FFFFFF" stroke="#000000" stroke-width="0.7969" stroke-miterlimit="10" d="M261.34,295.31
		c0,25.92-9.35,72.85-36.01,71.99c-25.57-0.82-38.54-46.13-38.54-71.63c0-25.5,12.97-71.52,38.54-72.35
		C251.99,222.47,261.34,269.39,261.34,295.31z"/>
	<path fill="#FFFFFF" stroke="#000000" stroke-miterlimit="10" d="M40.74,429.34"/>
	<path fill="none" stroke="#000000" stroke-miterlimit="10" d="M227.7,213.59c72.3,23.52,41.81,171.6-6.19,160.88"/>
	<path fill="#FFFFFF" stroke="#000000" stroke-width="0.7969" stroke-miterlimit="10" d="M78.02,468.15"/>
	<path fill="#FFFFFF" stroke="#000000" stroke-width="0.7969" stroke-miterlimit="10" d="M233.04,224.52
		c-2.79,0.66-6.63,1.85-10.76,4.14c-26.84,14.91-28.29,55.66-28.6,64.34c-0.38,10.65,0.63,28.65,9.96,48
		c5.7,11.83,12.68,20.37,17.87,25.82"/>
	<path d="M237.79,212.81c32.09,6.6,48.56,41.73,50.67,71.86c2.32,29.38-6,67.02-30.69,85.53c-6.52,4.64-14.51,7.67-22.56,6.77
		c-1.1-0.06-2.18-0.34-3.24-0.53l0.02-1c4.11-0.01,8.22-0.79,11.97-2.45c3.76-1.64,7.2-3.97,10.2-6.79
		c27.38-26.56,30.84-83.3,16.34-117.13c-6.39-15.21-17.75-28.73-33.1-35.36C237.4,213.73,237.79,212.81,237.79,212.81L237.79,212.81
		z"/>
	<path d="M270.9,212.08c22.52,2.9,39.96,22.2,48.15,42.54c11.69,28.92,10.9,63.5-3.57,91.29c-7.77,14.71-20.96,28.03-37.81,31.19
		c-1.07,0.21-2.15,0.32-3.22,0.45c0,0-0.3-0.95-0.3-0.95c7.86-2.59,14.91-7.32,20.57-13.3c27.02-29.22,28.39-82.62,11.12-117.12
		c-7.4-14.72-19.56-27.49-35.27-33.16C270.56,213.02,270.9,212.08,270.9,212.08L270.9,212.08z"/>
	<path d="M353.2,212.48c22.5,4.3,39.19,24.6,46.01,45.75c12.35,36.07,4.01,88.81-28.75,111.75c-7.51,5.02-16.62,8.1-25.7,7.17
		c0,0-0.11-0.99-0.11-0.99c8.3-1,16.07-4.78,22.32-10.28c29.37-26.13,34.7-82.21,19.55-117.05c-6.53-15.34-18.24-28.75-33.72-35.43
		C352.8,213.4,353.2,212.48,353.2,212.48L353.2,212.48z"/>
	<path d="M373.9,213.15c19.71,3.6,35.54,19.97,43.19,38.1c12.86,30.31,10.11,67.74-6.12,96.28c-8.63,14.91-23.61,29.63-42.03,29.05
		c0,0-0.16-0.98-0.16-0.98c8.07-1.45,15.32-5.83,21.09-11.56c26.9-27.45,32.2-81.15,17-115.57c-6.54-14.98-18.2-27.89-33.36-34.39
		C373.51,214.07,373.9,213.15,373.9,213.15L373.9,213.15z"/>
	<path fill="none" stroke="#D1D3D4" stroke-miterlimit="10" d="M251.89,306.29"/>
	<ellipse stroke="#000000" stroke-width="1.1832" stroke-miterlimit="10" cx="227.7" cy="353.53" rx="4.34" ry="8.94"/>
	<line stroke="#000000" stroke-width="1.1832" stroke-miterlimit="10" x1="237.6" y1="232.76" x2="210.28" y2="251.14"/>
	<line stroke="#000000" stroke-width="1.1832" stroke-miterlimit="10" x1="246.12" y1="243.03" x2="203.84" y2="271.48"/>
	<line stroke="#000000" stroke-width="1.1832" stroke-miterlimit="10" x1="250.29" y1="256.23" x2="203.33" y2="287.83"/>
	<line stroke="#000000" stroke-width="1.1832" stroke-miterlimit="10" x1="255.93" y1="268.44" x2="203.33" y2="301.95"/>
	<line stroke="#000000" stroke-width="1.1832" stroke-miterlimit="10" x1="257.66" y1="283.29" x2="203.84" y2="319.5"/>
	<line stroke="#000000" stroke-width="1.1832" stroke-miterlimit="10" x1="256.42" y1="300.13" x2="209.08" y2="331.98"/>
	<line stroke="#000000" stroke-width="1.1832" stroke-miterlimit="10" x1="255.01" y1="317.08" x2="214.91" y2="344.06"/>
	<line stroke="#000000" stroke-width="1.1832" stroke-miterlimit="10" x1="253.2" y1="334.3" x2="225.88" y2="352.68"/>
</g>
<g id="Layer_4">
	<g>
		<path fill="#FFFFFF" stroke="#000000" stroke-miterlimit="10" d="M289.09,416.59l10.88-39.52c25.7,1.53,59.15,0,64.51-10.43
			l17.28,51.37l-20.33,0.09c-2.04-23.49-42.39-30.82-53.63-1.8L289.09,416.59z"/>
		<polygon points="390.17,416.3 382.23,418.55 364.55,365.45 366.02,366.91 		"/>
	</g>
	<g>
		<path fill="#FFFFFF" stroke="#000000" stroke-miterlimit="10" d="M198.87,419.81l16.04-47.1c24.63,10.34,59.99,0.8,64.53-3.96
			l18.84,56.17H281.6c-6.13-18.38-38.31-39.83-60.26-5.45L198.87,419.81z"/>
		<polygon points="306.85,423.15 298.91,425.4 279.68,367.84 282.26,368.34 		"/>
	</g>
	<g>
		<g>
			<path d="M272.25,105.74c0.05,0.8-0.57,1.25-1.87,1.34c-0.35,0.03-0.53,0.04-0.88,0.06c-1.31-0.03-2.97,0.01-4.92,0.2
				c-12.03,1.13-23.47,7.11-33.15,14.26c-6.89,5.01-12.36,10.08-16.39,15.04c-7.38,9.08-13.33,19.4-18.91,29.55
				c-6.8,12.36-13,25.73-21.05,37.56c-1.7,2.4-2.7,3.68-3.06,3.82c-0.18,0.07-0.31,0.05-0.39-0.06c-0.01-0.03,0.28-0.67,0.9-1.91
				c3.84-8.54,4.38-18.72,5.12-27.72c0.95-11.47,2.04-20.26,3.25-25.8c1.21-5.55,2.95-10.37,5.19-14.43
				c0.53-0.96,0.79-1.48,0.77-1.58c-0.3,0.02-0.56,0.23-0.78,0.63c-0.18,0.25-0.27,0.38-0.46,0.64c-0.42,0.75-0.63,1.12-1.05,1.87
				c-1.82,3.25-6.04,11.15-11.62,23.83c-6.7,15.83-13.08,31.96-21.53,46.96c-3.42,5.82-5.46,9.13-6.17,9.34
				c-0.16,0.05-0.35-0.01-0.44-0.11c-0.04-0.09,0.06-0.39,0.32-0.91c4.6-10.19,6.67-21.6,8.08-32.21
				c1.21-9.16,2.79-20.47-0.61-29.62c-1.61-4.34-4.42-7.34-8.19-8.8c-3.77-1.45-8.12-1.19-12.85,0.9
				c-11.14,4.91-19.55,15.63-22.91,26.55c-3.04,9.9-5.72,21.92,0.33,32.05c1.99,3.34,4.67,5.5,8.03,6.37
				c3.36,0.87,6.76,0.32,10.25-1.51c9.14-4.8,12.11-15.1,15.07-24.08c1.89-7.97,2.03-14.29,0.02-18.93
				c-0.94-2.19-2.37-3.66-4.31-4.4c-1.94-0.74-4.03-0.6-6.26,0.41c-1.34,0.61-2.52,1.46-3.53,2.56c-1.02,1.1-1.39,1.91-1.15,2.44
				c0.08,0.17,0.23,0.21,0.45,0.11c0.11-0.05,0.28-0.17,0.51-0.35c0.86-0.55,1.44-0.89,1.74-1.03c1.65-0.77,2.83-0.4,3.51,1.1
				c0.41,0.91,0.33,1.89-0.24,2.95c-0.57,1.06-1.43,1.86-2.59,2.4c-2.24,1.06-3.83,0.63-4.76-1.32c-0.74-1.54-0.55-3.29,0.6-5.24
				c1.15-1.95,2.85-3.45,5.08-4.46c2.57-1.17,4.96-1.34,7.15-0.53c2.18,0.81,3.79,2.45,4.84,4.91c2.38,5.57,1.89,13.2-0.89,22.81
				c-3.08,10.62-7.89,17.66-14.96,21.44c-4.11,2.2-8.21,2.71-12.41,1.54c-4.21-1.17-7.56-3.74-9.98-7.83
				c-2.26-3.83-3.4-8.55-3.25-14.21c0.15-5.66,1.56-11.52,4.35-17.52c5.12-11.49,13.57-22.05,25.21-27.2
				c5.96-2.63,11.87-2.86,17.38-0.79c5.51,2.07,9.19,5.87,11.19,11.24c2.15,5.78,1.66,13.92-0.56,24.25
				c-2.1,9.77-5.79,20.3-10.47,29.21c-0.44,0.92-0.65,1.41-0.62,1.47c0.09,0.1,0.18,0.13,0.28,0.08c1-0.47,2.98-4.52,6.37-12.11
				c7.05-16.1,13.79-32.31,21.13-48.29c2.88-6.12,6.02-11.7,9.37-16.73c3.35-5.02,5.65-7.65,6.69-7.93
				c0.24-0.06,0.39,0.01,0.44,0.21c0.02,0.09-0.05,0.28-0.24,0.56c-1.84,3.29-3.13,6.51-3.89,9.64c-0.87,3.55-1.81,10.09-2.6,19.5
				c-0.86,10.29-1.79,18.32-3.03,24c-1.29,5.89-3.4,11.58-6.22,17.08c-0.02,0.15-0.05,0.28-0.08,0.39c0.07,0.08,0.17,0.13,0.27,0.11
				c0.51-0.11,2.2-3.07,5.14-8.55c5.95-11.72,11.9-23.36,18.32-34.85c4.65-8.36,10.67-16.92,17.23-23.89
				c5.6-5.94,12.46-11.89,20.3-16.45c8.98-5.22,18.9-10.27,29.81-11.07C270.65,104.5,272.19,104.84,272.25,105.74z"/>
			<path d="M219.42,171.93c0,0.08-0.14,0.39-0.37,0.88c-0.67,1.32-1.01,1.98-1.66,3.31c-4.77,9.75-8.48,15.11-11.85,16.04
				c-1.6,0.44-3.07,0.3-4.45-0.42c-1.37-0.73-2.29-1.86-2.75-3.4c-0.53-1.79-0.15-4.87,1.24-9.21c1.9-5.86,2.92-8.79,5.06-14.64
				c1.19-0.07,2.12-0.19,2.78-0.36c0.99-0.25,2.36-0.7,4.11-1.35c-3.33,8.21-4.87,12.33-7.7,20.59c-1.02,2.99-1.3,5.16-0.92,6.53
				c0.39,1.4,1.39,1.86,2.99,1.42c3.03-0.83,6.92-7.2,12.69-18.99c0.11-0.35,0.25-0.55,0.43-0.59
				C219.25,171.67,219.42,171.77,219.42,171.93z M214.24,152.61c0.25,1.1-0.08,2.25-0.96,3.47c-0.88,1.21-1.97,1.97-3.27,2.28
				c-1.67,0.4-2.68-0.09-3.03-1.5c-0.26-1.03,0.08-2.17,1.02-3.41c0.94-1.24,2.05-2.01,3.34-2.31
				C212.96,150.76,213.93,151.26,214.24,152.61z"/>
			<path d="M262.96,164.86c0.07,0.67-2.31,4.04-6.76,10.22c-3.65,5.07-6.54,7.81-8.89,8.17c-1.56,0.24-2.95-0.11-4.2-1.05
				c-1.24-0.94-2.01-2.22-2.28-3.84c-0.24-1.43-0.14-2.81,0.32-4.14c0.45-1.33,1.79-4.05,4.05-8.1c2.37-4.25,3.54-6.91,3.4-7.96
				c-0.18-1.31-1.3-1.99-2.68-1.62c-10.34,2.78-15.53,19.91-19.56,30.1c-1.71,0.23-2.74,0.4-3.08,0.47
				c-1.2,0.27-2.32,0.59-3.36,0.96c2.13-5.4,3.25-8.09,5.6-13.46c3.34-7.67,5.05-12.32,4.74-14c-0.18-0.95-0.73-1.34-1.66-1.16
				c-1.89,0.36-5.01,4.5-8.89,12.48c-0.23,0.48-0.44,0.78-0.61,0.83c-0.16,0.05-0.31-0.03-0.39-0.21c0-0.17,0.04-0.31,0.13-0.43
				c0.3-0.56,0.45-0.85,0.76-1.41c4.07-7.69,7.33-11.68,9.3-12.06c1.26-0.24,2.43,0.05,3.5,0.87c1.07,0.82,1.72,1.92,1.96,3.28
				c0.36,2.03-0.52,5.09-2.52,9.21c3.24-5.96,6-10.07,8.03-12.36c2.04-2.29,4.09-3.58,6.1-3.87c1.64-0.24,3.1,0.15,4.37,1.15
				c1.27,1,2.01,2.35,2.23,4.05c0.28,2.14-1.01,5.63-3.67,10.5c-2.72,4.98-3.89,8.11-3.69,9.35c0.21,1.31,1.02,1.84,2.45,1.63
				c3.09-0.47,7.57-6.3,14.44-17.31c0.15-0.34,0.31-0.52,0.5-0.54C262.82,164.58,262.94,164.67,262.96,164.86z"/>
			<path d="M290.52,163.1c0,0.1-0.32,0.52-0.95,1.28c-0.91,1.07-1.36,1.61-2.25,2.69c-7.17,8.51-12.97,13.07-18.13,13.53
				c-2.44,0.22-4.56-0.38-6.4-1.82c-1.84-1.44-2.91-3.37-3.19-5.8c-0.66-5.76,3.25-11.44,12.24-16.56
				c4.73-2.69,8.72-4.07,11.84-4.21c1.35-0.06,2.52,0.24,3.51,0.9c0.98,0.66,1.48,1.49,1.52,2.49c0.08,2.32-1.61,4.34-4.97,6.12
				c-3.37,1.79-12.78,2.7-16.82,5.75c-2.08,1.57-3.06,6.42-2.83,8.63c0.28,2.76,2.05,3.96,5.3,3.67c5.52-0.49,11.8-5.93,19.84-16.14
				c0.42-0.53,0.81-0.83,1.07-0.81C290.43,162.83,290.52,162.94,290.52,163.1z M285.53,154.3c-0.04-1.03-0.72-1.52-2.03-1.46
				c-1.99,0.09-4.56,1.41-7.61,3.99c-3.06,2.58-5.94,5.89-8.59,9.92c5.1-1.66,9.42-3.64,12.98-6.02
				C283.82,158.35,285.61,156.23,285.53,154.3z"/>
			<path d="M424.42,133.15c-0.45,1.48-3.03,3.02-7.63,4.72c-4.6,1.71-9.94,3.14-15.98,4.38c-1.15,1.61-2.98,4.6-5.45,8.96
				c-3.88,6.84-7.02,11.64-9.43,14.34c-2.42,2.71-5.92,5.23-10.43,7.67c-11.9,6.59-25.48,9.89-39.06,8.53
				c-3.85-0.38-7.21-1.25-10.1-2.64c-1.85,2.85-2.81,5.38-2.95,7.57c-0.17,2.77,0.65,5.37,2.41,7.83c0.19,0.21,0.27,0.44,0.25,0.7
				c-0.02,0.26-0.2,0.37-0.53,0.35c-0.77-0.05-1.53-1.11-2.31-3.16c-0.77-2.05-1.12-3.95-1.01-5.69c0.15-2.51,1.19-5.24,3.17-8.14
				c-7.09-3.96-10.64-10.02-10.34-18.49c0.2-5.44,2.23-10.8,6.35-15.98c4.11-5.18,10.12-9.63,17.49-13.34
				c7.87-3.96,19.61-6.23,28.43-4.7c4.87,0.84,8.68,2.6,11.15,5.33c2.47,2.73,3.29,5.98,2.54,9.71c-0.4,1.99-1.16,3.99-2.28,6
				c6.23-1.99,13.68-2.83,16.72-4.57c3.55-2.04,8.58-7.6,13.85-9.97c5.27-2.37,9.61-3.02,12.86-2.06
				C424.03,131.05,424.79,131.94,424.42,133.15z M379.99,140.7c0.66-3.32-0.11-6.25-2.37-8.78c-2.26-2.52-5.61-4.19-9.98-4.88
				c-11.7-1.85-24.24,2.33-32.59,9.64c-7.71,6.75-15.73,15.46-16.09,27.04c-0.19,6.25,2.09,10.94,7,13.96
				c2.63-3.44,6.39-7.12,11.4-10.94c-2.21-2.06-3.23-4.34-3.01-6.88c0.17-1.93,1.01-3.51,2.56-4.74c1.54-1.23,3.34-1.75,5.37-1.53
				c2.51,0.27,3.65,1.41,3.42,3.4c-0.12,1.02-0.69,1.86-1.69,2.51c-1.01,0.65-2.13,0.91-3.39,0.78c-1.8-0.19-2.63-1.02-2.49-2.53
				c0.05-0.48,0.28-0.98,0.71-1.49c0.19-0.4,0.29-0.63,0.29-0.7c0.02-0.19-0.08-0.3-0.31-0.32c-0.64-0.06-1.34,0.45-2.12,1.55
				c-0.78,1.09-1.21,2.2-1.31,3.33c-0.19,2.12,0.76,4.11,2.81,5.99c11.77-8.72,25.24-13.65,38.93-18.47
				C378.62,145.02,379.58,142.72,379.99,140.7z M394.44,143.63c-5.07,1.26-13.29,2.26-16.45,4.75c-3.76,2.97-9.26,11.27-16.13,15.38
				c-6.87,4.11-12.86,5.9-18.33,5.28c-1.66-0.19-3.43-0.77-5.34-1.74c-4.46,3.35-8.2,7.02-11.26,10.97c2.79,1.39,5.97,2.25,9.6,2.61
				c6.55,0.64,13.04-0.26,19.74-2.71c6.7-2.45,12.89-6.16,18.65-11.23c2.69-2.36,4.94-4.58,6.7-6.69c1.76-2.11,4.76-6.16,9.16-12.06
				C391.83,146.71,393.05,145.19,394.44,143.63z M376.3,148.84c-1.67,0.56-2.5,0.85-4.16,1.43c-11.57,4.52-23.05,9.08-33.18,16.43
				c1.45,0.86,3.03,1.38,4.76,1.58c5.05,0.58,10.59-1.07,16.92-4.86C366.98,159.63,372.23,154.82,376.3,148.84z M423.26,132.9
				c0.22-0.74-0.23-1.28-1.34-1.61c-2.68-0.79-6.1-0.22-10.16,1.76s-7.45,4.72-10.18,8.15c5.78-1.23,10.74-2.57,14.87-4.1
				C420.57,135.56,422.87,134.19,423.26,132.9z"/>
			<path d="M411.88,167.94c-0.26,0.23-0.39,0.34-0.64,0.56c-2.86-0.85-4.29-1.26-7.15-2.05c-6.84,5.75-10.16,8.7-16.57,14.74
				c-1.96,1.82-3.07,3.38-3.37,4.66c-0.33,1.41,0.31,2.3,1.92,2.69c3.12,0.76,9.5-2.95,20.01-10.55c0.34-0.24,0.6-0.33,0.77-0.28
				c0.21,0.06,0.31,0.23,0.24,0.37c-0.04,0.08-0.31,0.28-0.75,0.59c-1.23,0.83-1.85,1.25-3.07,2.09
				c-8.92,6.22-14.69,9.13-17.94,8.35c-1.61-0.39-2.83-1.23-3.67-2.55c-0.84-1.32-1.09-2.77-0.73-4.38c0.42-1.89,1.87-4.04,4.4-6.43
				c4.81-4.48,7.27-6.69,12.33-11.02c-2.24-0.58-3.36-0.86-5.61-1.4c0.29-0.23,0.43-0.34,0.72-0.57c2.21,0.54,3.31,0.81,5.51,1.38
				c3.52-2.96,5.3-4.43,8.93-7.31c1.05,0.56,2.08,0.98,3.09,1.27c1.04,0.3,2.16,0.49,3.35,0.57c-3.64,2.84-5.43,4.27-8.95,7.19
				C407.59,166.67,409.02,167.09,411.88,167.94z"/>
			<path d="M438.19,188.67c-0.19,0.48-1.65,1.19-4.35,2.19c-4.03,1.49-7.26,1.81-9.79,0.92c-1.06-0.38-1.94-0.89-2.64-1.54
				c-6.5,4.13-11.54,5.68-15.46,4.48c-2.03-0.62-3.53-1.89-4.54-3.84c-1.01-1.95-1.23-3.99-0.63-6.13
				c1.34-4.78,6.16-8.45,14.78-10.58c6.06-1.51,10.83-1.6,14.14-0.44c3.09,1.09,4.12,3.06,3.1,5.84
				c-1.28,3.48-4.96,6.86-10.82,10.36c0.56,0.6,1.27,1.05,2.12,1.36c1.54,0.55,3.56,0.56,6.09,0.06c2.53-0.5,4.8-1.37,6.8-2.62
				c0.54-0.27,0.9-0.37,1.08-0.3C438.19,188.46,438.23,188.55,438.19,188.67z M431.95,179.37c0.89-2.45,0.03-4.16-2.59-5.08
				c-3.27-1.15-8.21,0.13-14.53,4.02c-6.32,3.89-9.89,7.78-10.97,11.46c-0.63,2.13,0.18,3.52,2.41,4.2
				c3.66,1.11,8.46-0.36,14.72-4.27c-0.66-1.32-0.82-2.49-0.47-3.53c0.51-1.5,1.71-2.81,3.62-3.92c1.91-1.11,3.54-1.43,4.84-0.96
				c0.56,0.2,0.84,0.65,0.83,1.33C430.76,181.75,431.48,180.67,431.95,179.37z"/>
			<path d="M467.43,201.64c-0.11,0.23-1.67,0.77-4.57,1.71c-3.71,1.2-6.66,1.34-8.89,0.32c-2.53-1.16-3.23-3.01-2.09-5.6
				c0.36-0.82,1.03-1.78,2-2.87c-2.87,0.66-5.31,1.53-7.32,2.56c-2.02,1.03-5.71,3.32-10.91,6.99c-1.7-0.83-2.71-1.29-3-1.4
				c-0.13-0.05-1.17-0.39-3.1-0.99c5.1-3.56,7.7-5.29,13.01-8.68c6.64-4.24,10.42-6.95,11.03-8.37c0.36-0.83,0.13-1.42-0.68-1.77
				c-1.97-0.84-6.96,0.81-14.59,5.28c-0.48,0.3-0.87,0.41-1.08,0.31c-0.12-0.06-0.17-0.22-0.1-0.35c0.07-0.13,0.21-0.23,0.35-0.28
				c0.55-0.31,0.83-0.46,1.38-0.76c7.77-4.06,12.81-5.51,14.75-4.68c2.82,1.21,3.56,3.36,2.21,6.4c-1.01,2.27-3.76,4.63-8.15,7.2
				c2.52-1.02,5.5-1.45,6.95-2.13c2.18-1.02,5.09-3.49,7.86-4.34c2.77-0.85,4.96-0.88,6.52-0.13c1.08,0.52,1.42,1.17,1.04,1.95
				c-0.68,1.39-4.05,2.17-10,2.58c-0.94,0.06-2.35,0.14-4.2,0.26c-0.33,0.07-0.49,0.1-0.81,0.17c-1.08,1.14-1.82,2.15-2.21,3.04
				c-1.1,2.47-0.6,4.17,1.51,5.14c2.6,1.19,6.29,0.62,11.22-1.62c0.98-0.31,1.56-0.42,1.73-0.34
				C467.45,201.33,467.51,201.47,467.43,201.64z"/>
			<path d="M492.38,215.21c-0.05,0.08-0.56,0.27-1.52,0.56c-1.37,0.41-2.05,0.61-3.41,1.03c-10.83,3.25-18.32,3.93-23.06,1.52
				c-2.24-1.14-3.76-2.8-4.59-5.02c-0.83-2.21-0.73-4.42,0.33-6.63c2.51-5.23,8.91-7.93,19.49-7.35c5.56,0.3,9.79,1.33,12.59,2.92
				c1.22,0.69,2.08,1.59,2.59,2.69c0.51,1.1,0.5,2.08,0,2.94c-1.17,2-3.73,2.78-7.63,2.44c-3.9-0.34-12.54-4.73-17.75-4.33
				c-2.64,0.2-6.09,3.77-7.07,5.76c-1.23,2.49-0.34,4.46,2.65,5.98c5.07,2.59,13.45,1.42,25.95-2.78c0.65-0.22,1.15-0.25,1.37-0.09
				C492.44,214.92,492.46,215.07,492.38,215.21z M492.7,205.02c0.51-0.89,0.18-1.68-1-2.35c-1.79-1.01-4.74-1.31-8.78-0.8
				c-4.04,0.51-8.32,1.74-12.79,3.7c5.33,1.37,10.16,2.06,14.53,2C489.04,207.5,491.74,206.7,492.7,205.02z"/>
		</g>
	</g>
	<g>
		<g>
			<path d="M238.11,460.87c-0.17,1.43-0.52,2.92-1.06,4.47c-0.54,1.55-0.98,2.3-1.31,2.26c-0.18-0.02-0.26-0.12-0.24-0.29
				c0.02-0.2,0.08-0.38,0.16-0.54c0.89-1.63,1.47-3.6,1.74-5.9c0.42-3.54-0.38-6.51-2.33-8.94c-1.95-2.42-4.72-3.87-8.35-4.39
				c-6.96-0.99-14.16,1.13-21.97,6.32c1.69,4.92,2.15,9.86,1.27,14.82c-1.61,9.15-7.04,16.2-15.94,21.04
				c-9.89,5.37-21.09,4.86-31.14,2.84c-3.39-0.68-8.27-2.6-14.14-5.19c-5.53-0.67-10.74-1.78-15.57-3.31
				c-8.24-2.61-12.08-4.77-11.59-6.19c0.24-0.7,1.44-0.97,3.61-0.84c2.17,0.13,4.57,0.63,7.23,1.48c3.21,1.03,9.29,4,18.47,8.58
				c6.96,0.34,12.74-0.7,17.28-3.01c4.42-2.25,11.71-7.77,21.29-16.88c5.79-5.53,11.64-10.09,17.61-13.73
				c-2.97-7.65-9.2-12.23-18.28-14.5c-8.93-2.23-21.28-0.4-29.4,4.02c-5.13,2.47-9.64,5.47-13.49,9.08
				c-3.85,3.61-6.41,7.21-7.59,10.88c-0.93,2.91-0.65,5.58,0.89,7.99c1.53,2.41,4.05,4.15,7.51,5.17c5.86,1.73,12.79,0.63,20.5-3.41
				c7.7-4.04,12.04-8.8,13.29-14.03c0.47-1.98,0.26-3.72-0.61-5.22c-0.88-1.49-2.26-2.47-4.15-2.95c-2.15-0.54-3.31-0.5-3.48,0.16
				c-0.05,0.19,0.09,0.33,0.41,0.41c0.17,0.05,0.33,0.06,0.46,0.03c0.24,0.06,0.37,0.09,0.61,0.16c1.43,0.37,1.99,1.16,1.68,2.4
				c-0.23,0.91-0.79,1.6-1.7,2.09c-0.91,0.49-1.86,0.6-2.86,0.34c-1.8-0.46-2.45-1.61-1.97-3.42c0.33-1.23,1.19-2.13,2.58-2.7
				c1.39-0.57,2.91-0.65,4.57-0.23c2.12,0.53,3.68,1.62,4.69,3.28c1.01,1.66,1.27,3.56,0.76,5.71c-1.32,5.57-5.78,10.55-13.67,14.7
				c-7.89,4.15-15.1,5.26-21.31,3.42c-4.27-1.26-7.4-3.61-9.34-6.97s-2.17-7.04-0.97-10.91c2.62-8.4,12.91-15.72,20.47-18.43
				c9.01-3.23,22.62-4.74,32.31-2.31c9.11,2.28,15.67,6.89,19.28,14.56c8.27-4.95,15.83-6.94,23.07-5.92
				c3.62,0.51,6.4,2.03,8.38,4.59C237.74,454.03,238.54,457.16,238.11,460.87z M143.23,486.66c-8.33-3.55-14.53-6.13-18.74-7.51
				c-3.71-1.22-5.67-1.55-5.88-0.93c-0.32,0.94,3.57,2.84,11.73,5.41C135.03,485.09,139.33,486.09,143.23,486.66z M204.14,465.16
				c0.65-3.57,0.45-7.05-0.55-10.47c-4.75,3.55-9.4,8.22-13.95,14c-6.03,7.67-11.92,12.86-17.48,15.48
				c-5.72,2.7-13.67,4.02-23.74,3.68c3.78,1.85,7.97,3.33,12.45,4.49c11.7,3.02,23.89-0.41,32.54-8.86
				C199.49,477.76,202.98,471.59,204.14,465.16z"/>
			<path d="M234.36,491.01c-0.08,0.65-2.65,3.13-7.87,7.35c-4.33,3.5-7.68,5.06-9.92,4.73c-1.41-0.21-2.53-0.88-3.35-2.03
				c-0.82-1.14-1.12-2.41-0.9-3.81c0.17-1.09,1.03-2.52,2.55-4.29c-0.45,0.4-0.67,0.59-1.12,0.99c-3.41,2.86-5.94,4.71-7.47,5.6
				c-1.7,0.99-3.24,1.39-4.58,1.16c-1.4-0.24-2.5-0.94-3.28-2.07c-0.78-1.13-1.04-2.4-0.78-3.79c0.3-1.62,1.35-3.34,3.13-5.17
				c4.33-4.5,6.46-6.78,10.64-11.37c1.01,0.37,1.8,0.59,2.39,0.68s1.64,0.16,3.17,0.19c-5.38,5.92-8.13,8.85-13.77,14.63
				c-1.43,1.48-2.26,2.85-2.49,4.14c-0.22,1.26,0.27,1.99,1.48,2.2c3.22,0.56,9.36-3.82,17.81-13.39c2.23-2.53,3.33-3.8,5.52-6.35
				c0.92,0.33,1.71,0.53,2.36,0.61c0.77,0.1,1.87,0.14,3.31,0.12c-3.5,4.03-5.28,6.04-8.89,10.01c-4.29,4.72-6.63,7.79-6.85,9.27
				c-0.18,1.2,0.39,1.91,1.7,2.1c2.56,0.37,7.27-2.57,13.81-8.97c0.67-0.65,1.01-0.98,1.68-1.64c0.38-0.33,0.57-0.5,0.96-0.83
				c0.19-0.26,0.36-0.39,0.52-0.37C234.29,490.74,234.37,490.84,234.36,491.01z"/>
			<path d="M353.62,459.07c0.51,4.5-1.92,8.62-7.44,12.22c-2.4,1.57-4.09,2.38-5.03,2.46c-0.24,0.02-0.37-0.08-0.39-0.31
				c-0.01-0.14,0.41-0.4,1.26-0.79c3.27-1.54,5.85-3.58,7.73-6.09c1.88-2.52,2.67-4.99,2.4-7.41c-0.25-2.25-1.26-3.99-3-5.23
				s-3.9-1.73-6.49-1.49c-8.3,0.77-15.34,5.89-21.66,15.52c-1.09,1.67-4.39,8.09-10.14,19.04c-5.06,9.64-13.07,18.54-23.92,21.56
				c2.8,0.36,5.01,0.53,6.63,0.54c5.88,0.03,10.87-1.73,14.86-5.17c3.44-2.96,6.51-6.43,9.16-10.39c0.33-0.41,0.59-0.63,0.73-0.62
				c0.11,0.01,0.19,0.08,0.2,0.16c0.01,0.28-1.38,2.2-4.24,5.72c-3.39,4.16-6.6,7.02-9.56,8.57c-2.96,1.56-6.62,2.35-10.95,2.32
				c-2.68-0.01-5.59-0.25-8.71-0.71c-2.4,0.52-4.59,0.74-6.57,0.67c-1.68-0.06-2.51-0.4-2.49-1.02c0.03-0.71,1.36-1.01,4-0.93
				c1.48,0.04,3.33,0.26,5.55,0.65c4.29-1.56,7.54-3.56,9.74-5.96c2.37-2.59,5.89-8.06,10.3-16.43c0.29-0.57,0.43-0.85,0.72-1.42
				c-7.2,0.13-10.81,0.13-18.01,0.02c-2.98,4.91-5.63,8.51-7.88,10.82c-2.24,2.31-5.26,4.52-9.06,6.58
				c-8.36,4.55-16.53,6.45-24.17,5.77c-4.45-0.4-7.99-1.6-10.58-3.55c-2.59-1.95-3.71-4.26-3.4-6.91c0.16-1.38,0.76-2.52,1.79-3.43
				c1.03-0.91,2.2-1.29,3.52-1.15c2.04,0.22,2.96,1.25,2.77,3.11c-0.09,0.9-0.49,1.64-1.19,2.23c-0.7,0.58-1.53,0.82-2.48,0.72
				c-1.49-0.16-2.24-1.01-2.01-2.23c0.12-0.66,0.12-1.06-0.16-1.09c-0.57-0.06-0.94,0.65-1.11,2.14c-0.27,2.31,0.74,4.34,3.05,6.09
				c2.31,1.74,5.41,2.81,9.27,3.16c6.8,0.62,12.91-0.74,18.18-3.99c5.27-3.25,11.3-9.36,17.75-18.4c-5.69-0.15-8.53-0.27-14.21-0.57
				c0.17-0.33,0.25-0.5,0.41-0.83c5.77,0.3,8.65,0.42,14.42,0.56c0.38-0.56,1.04-1.45,1.95-2.67c6.65-9.48,12.51-16.2,17.92-20.09
				c1.14-0.84,2.66-1.74,4.54-2.73c1.89-0.99,3.11-1.56,3.48-1.51c0.15,0.02,0.27,0.16,0.27,0.33c0,0.17-0.28,0.38-0.86,0.62
				c-3.56,1.51-6.75,4-9.61,7.48c-2.85,3.48-6.8,9.74-12.14,18.69c7.21,0.11,10.82,0.1,18.03-0.04
				c4.44-8.05,10.72-16.56,17.57-22.73c6.19-5.56,12.16-8.68,18.22-9.24c2.98-0.28,5.48,0.26,7.53,1.62
				C352.17,454.68,353.34,456.59,353.62,459.07z M296.2,463.29c0,0.59-0.87,1.78-2.64,3.56c-2.64,2.67-5.2,3.98-7.6,3.93
				c-1.71-0.04-3.13-0.65-4.23-1.83c-1.1-1.18-1.63-2.61-1.57-4.28c0.05-1.56,0.72-3.47,2-5.76c1.58-2.84,2.37-4.82,2.39-5.93
				c0.04-1.44-0.63-2.62-1.99-3.54c-1.36-0.92-3.15-1.41-5.39-1.5c-6.41-0.25-12.53,1.92-18.63,6.56
				c-6.1,4.63-9.54,9.74-10.08,15.49c-0.28,2.96,0.46,5.47,2.25,7.52c1.79,2.05,4.26,3.2,7.39,3.43c6.04,0.44,11.31-1.86,15.63-6.82
				c0.07-0.17,0.18-0.28,0.29-0.28c0.21-0.02,0.36,0.14,0.35,0.4c-0.03,0.59-1.04,1.65-3.06,3.13c-4.18,3.17-8.7,4.59-13.43,4.24
				c-3.32-0.24-5.94-1.46-7.84-3.62c-1.9-2.16-2.68-4.83-2.38-7.98c0.58-6.09,4.12-11.4,10.35-16.1c6.23-4.7,12.63-6.9,19.46-6.63
				c6,0.23,8.94,2.87,8.84,8.08c-0.04,1.78-0.71,3.91-2.04,6.37c-1.33,2.46-2.02,4.1-2.05,4.92c-0.06,2.15,1.14,3.27,3.6,3.32
				c1.5,0.03,3.23-0.6,5.16-1.91s3.41-2.87,4.45-4.69c0.15-0.28,0.3-0.42,0.44-0.42C296.08,462.95,296.2,463.06,296.2,463.29z"/>
			<path d="M350.7,491.91c0.06,0.59-1.96,3.58-6.15,8.87c-3.41,4.31-6.27,6.58-8.47,6.73c-1.48,0.11-2.73-0.3-3.72-1.22
				c-1-0.92-1.54-2.11-1.63-3.58c-0.09-1.53,0.31-3.21,1.21-5.06c-2.91,4.16-5.22,6.97-6.85,8.44c-1.63,1.47-3.26,2.24-4.88,2.31
				c-1.71,0.07-3.17-0.52-4.37-1.77c-1.2-1.25-1.83-2.85-1.89-4.8c-0.17-5.43,3.98-10.33,12.15-14.98c3.59-2.07,6.48-3.2,8.73-3.36
				c1.91-0.14,2.93,0.63,3.06,2.33c0.04,0.48-0.04,1.12-0.23,1.93c0.82-1.72,1.23-2.58,2.04-4.29c0.94,0.12,1.77,0.15,2.48,0.09
				c0.83-0.07,1.9-0.26,3.21-0.58c-2.81,5.26-4.26,7.88-7.23,13.1c-2.57,4.57-3.86,7.54-3.77,8.92c0.09,1.33,0.76,1.95,2.02,1.86
				c1.29-0.09,3.26-1.54,5.86-4.36c2.6-2.82,5.15-6.26,7.64-10.33c0.16-0.3,0.32-0.46,0.48-0.47
				C350.58,491.67,350.68,491.74,350.7,491.91z M337.21,486.05c-0.11-1.38-0.85-2.02-2.24-1.92c-2.84,0.21-6.37,3-10.79,8.33
				c-4.42,5.33-6.68,9.53-6.56,12.67c0.07,1.84,1.04,2.73,2.91,2.65c2.22-0.1,5.97-3.51,10.92-10.33
				C335.5,491.85,337.36,488.02,337.21,486.05z"/>
			<path d="M461.06,434.91c1.47,4.29-0.05,8.84-4.72,13.57c-2.04,2.06-3.52,3.22-4.43,3.5c-0.23,0.07-0.39,0-0.45-0.21
				c-0.04-0.14,0.31-0.48,1.07-1.05c2.9-2.22,5.01-4.78,6.33-7.65c1.32-2.87,1.56-5.46,0.78-7.77c-0.73-2.14-2.1-3.62-4.09-4.45
				s-4.23-0.84-6.72-0.04c-8.03,2.57-13.86,9.1-18.02,19.88c-0.71,1.87-2.59,8.86-5.89,20.79c-2.91,10.53-8.88,20.95-18.87,26.22
				c2.83-0.25,5.03-0.56,6.62-0.9c5.78-1.24,10.3-4.04,13.49-8.26c2.75-3.64,5.02-7.69,6.78-12.13c0.24-0.47,0.44-0.75,0.58-0.77
				c0.11-0.02,0.21,0.03,0.23,0.12c0.07,0.27-0.88,2.45-2.95,6.51c-2.44,4.8-4.99,8.28-7.56,10.44c-2.57,2.16-6,3.72-10.26,4.64
				c-2.64,0.57-5.54,0.96-8.71,1.19c-2.25,1.02-4.35,1.71-6.3,2.07c-1.66,0.31-2.55,0.15-2.66-0.46c-0.13-0.7,1.12-1.28,3.73-1.77
				c1.46-0.28,3.32-0.46,5.58-0.56c3.88-2.44,6.64-5.11,8.28-7.93c1.77-3.04,4.06-9.14,6.59-18.27c0.16-0.61,0.24-0.92,0.4-1.54
				c-7.05,1.69-10.59,2.47-17.69,3.91c-1.87,5.44-3.7,9.53-5.4,12.27s-4.18,5.55-7.47,8.38c-7.22,6.24-14.8,9.85-22.42,10.82
				c-4.44,0.57-8.15,0.15-11.1-1.2c-2.95-1.35-4.54-3.37-4.81-6.01c-0.14-1.38,0.2-2.62,1.01-3.73s1.87-1.73,3.19-1.87
				c2.04-0.22,3.16,0.59,3.38,2.44c0.1,0.9-0.12,1.71-0.68,2.43s-1.32,1.13-2.27,1.23c-1.49,0.16-2.4-0.51-2.45-1.75
				c-0.02-0.67-0.11-1.06-0.39-1.03c-0.57,0.06-0.78,0.83-0.62,2.33c0.24,2.31,1.65,4.08,4.28,5.29c2.63,1.21,5.88,1.59,9.74,1.1
				c6.78-0.86,12.47-3.49,16.93-7.8c4.46-4.31,9.06-11.58,13.45-21.79c-5.61,1.08-8.42,1.58-14.06,2.5c0.09-0.36,0.14-0.54,0.23-0.9
				c5.71-0.94,8.57-1.45,14.26-2.55c0.26-0.63,0.71-1.64,1.34-3.03c4.49-10.7,8.8-18.52,13.28-23.49c0.94-1.06,2.24-2.28,3.88-3.65
				c1.64-1.37,2.73-2.2,3.1-2.23c0.16-0.01,0.3,0.1,0.34,0.26c0.04,0.16-0.2,0.43-0.71,0.79c-3.18,2.25-5.78,5.37-7.84,9.38
				c-2.06,4.01-4.59,10.98-7.91,20.88c7.1-1.45,10.64-2.24,17.7-3.93c2.64-8.83,6.99-18.52,12.41-26.01
				c4.9-6.77,10.12-11.13,15.98-13c2.89-0.92,5.47-0.95,7.78-0.07C458.69,430.95,460.25,432.56,461.06,434.91z M405.4,451.54
				c0.13,0.58-0.47,1.93-1.83,4.05c-2.02,3.18-4.25,5.01-6.62,5.48c-1.69,0.33-3.21,0.04-4.54-0.87c-1.34-0.91-2.15-2.2-2.46-3.84
				c-0.28-1.53-0.04-3.55,0.72-6.06c0.94-3.12,1.28-5.22,1.07-6.3c-0.28-1.42-1.18-2.42-2.71-3.03c-1.53-0.6-3.39-0.7-5.61-0.31
				c-6.34,1.13-11.86,4.57-16.84,10.41c-4.97,5.83-7.24,11.56-6.53,17.29c0.36,2.95,1.62,5.25,3.81,6.86
				c2.19,1.62,4.85,2.21,7.96,1.77c6.01-0.86,10.68-4.24,13.84-10.02c0.03-0.18,0.11-0.31,0.22-0.34c0.21-0.06,0.38,0.06,0.42,0.31
				c0.1,0.59-0.66,1.83-2.33,3.72c-3.42,4-7.54,6.35-12.24,7.03c-3.3,0.47-6.13-0.15-8.45-1.86c-2.32-1.7-3.65-4.14-4.04-7.29
				c-0.74-6.07,1.58-12.01,6.67-17.94c5.09-5.93,10.88-9.45,17.63-10.66c5.93-1.06,9.39,0.88,10.4,5.99
				c0.35,1.75,0.15,3.97-0.63,6.66c-0.78,2.69-1.1,4.44-0.95,5.24c0.4,2.11,1.82,2.95,4.24,2.47c1.48-0.29,3.04-1.29,4.65-2.98
				c1.61-1.7,2.73-3.54,3.37-5.54c0.08-0.31,0.2-0.48,0.35-0.51C405.21,451.23,405.35,451.31,405.4,451.54z"/>
			<path d="M462.4,468.56c0.2,0.62-1.13,3.96-4.17,9.97c-2.52,4.99-4.94,7.8-7.14,8.44c-1.38,0.4-2.69,0.25-3.92-0.45
				c-1.23-0.7-2.03-1.73-2.41-3.09c-0.3-1.06-0.11-2.72,0.55-4.97c-0.24,0.55-0.37,0.82-0.61,1.36c-1.93,4.02-3.48,6.75-4.52,8.21
				c-1.14,1.61-2.38,2.61-3.7,2.96c-1.39,0.36-2.67,0.19-3.86-0.52c-1.18-0.71-1.94-1.75-2.29-3.12c-0.4-1.59-0.15-3.59,0.71-6.01
				c2.09-5.9,3.09-8.85,5.01-14.76c1.07-0.09,1.9-0.21,2.47-0.37c0.57-0.16,1.57-0.54,2.98-1.15c-2.47,7.62-3.77,11.43-6.53,19.04
				c-0.69,1.94-0.88,3.53-0.55,4.8c0.32,1.23,1.08,1.7,2.27,1.39c3.18-0.83,6.97-7.36,10.75-19.59c0.99-3.23,1.48-4.84,2.42-8.07
				c0.98-0.09,1.79-0.23,2.42-0.43c0.75-0.23,1.78-0.65,3.09-1.27c-1.54,5.13-2.34,7.69-4,12.82c-1.98,6.09-2.84,9.85-2.43,11.29
				c0.34,1.17,1.15,1.57,2.43,1.2c2.5-0.73,5.6-5.37,8.95-13.92c0.35-0.88,0.52-1.32,0.86-2.19c0.21-0.46,0.32-0.69,0.53-1.15
				c0.07-0.32,0.17-0.5,0.32-0.55C462.23,468.34,462.35,468.39,462.4,468.56z"/>
		</g>
	</g>
</g>
</svg>
